<?xml version="1.0" encoding="UTF-8"?>
<svg xmlns="http://www.w3.org/2000/svg" width="1440" height="780" viewBox="0 0 1440 780" fill="none">
  <rect width="1440" height="780" fill="#00E784"></rect>
  <g clip-path="url(#clip0_1_38)">
    <path d="M446.195 372.305C441.511 377.686 435.638 381.878 429.029 384.559C422.419 387.24 415.281 388.335 408.162 387.75C401.061 387.164 394.187 384.918 388.106 381.198C382.026 377.478 376.908 372.361 373.169 366.3C370.714 362.279 368.863 357.898 367.711 353.31C367.579 352.819 367.466 352.347 367.371 351.856L367.239 351.384C366.654 348.457 366.37 345.493 366.37 342.529V341.113C366.408 339.866 366.54 338.62 366.767 337.393H331.208C331.208 337.789 331.151 338.167 331.132 338.564C331.132 338.582 331 341.245 331 342.548C331 350.1 332.058 357.634 334.154 364.903C335.098 368.359 336.325 371.738 337.817 374.986C343.332 387.504 351.943 398.399 362.82 406.688C373.716 414.977 386.539 420.358 400.079 422.341C413.619 424.323 427.461 422.831 440.284 418.017C453.106 413.202 464.475 405.215 473.351 394.811L446.176 372.305H446.195Z" fill="#00493E"></path>
    <path d="M634.831 421.755H602.482V304.955H634.831V321.325C637.078 317.567 640.062 314.301 643.612 311.695C649.485 307.258 656.397 305.597 662.988 304.445C670.315 303.199 677.793 303.369 685.063 304.917L686.404 305.2L680.852 340.263L679.153 339.583C672.411 336.826 665.008 336.033 657.832 337.28C651.223 338.243 645.236 341.717 641.119 346.985C637.72 351.233 635.624 356.784 634.944 363.43V365.375C634.944 366.395 634.869 367.433 634.869 368.566V421.736L634.831 421.755Z" fill="#00493E"></path>
    <path d="M773.329 372.871C771.611 377.818 768.646 382.218 764.718 385.673C760.79 389.128 756.012 391.507 750.894 392.565C745.758 393.641 740.451 393.358 735.466 391.753C730.48 390.148 725.986 387.297 722.436 383.445L748.609 372.248L761.564 366.754L803.11 349.118C799.673 334.674 790.986 322.005 778.73 313.583C766.474 305.162 751.518 301.594 736.769 303.557C722.02 305.521 708.518 312.885 698.906 324.214C689.294 335.543 684.233 350.044 684.724 364.884C685.215 379.725 691.201 393.867 701.55 404.535C711.898 415.222 725.835 421.68 740.678 422.68C755.521 423.681 770.213 419.131 781.884 409.917C793.554 400.702 801.391 387.504 803.865 372.852L773.329 372.815V372.871ZM744.681 332.673C751.121 332.673 757.41 334.712 762.584 338.526L714.618 358.88C715.599 351.63 719.206 344.964 724.721 340.15C730.254 335.335 737.335 332.673 744.663 332.654L744.681 332.673Z" fill="#00493E"></path>
    <path d="M1110 421.755H1077.59V354.009C1077.59 346.192 1075.93 340.754 1072.65 337.827C1069.34 334.844 1065.02 333.239 1060.58 333.352C1057.61 333.428 1054.73 334.24 1052.14 335.712C1048.98 337.525 1046.42 340.206 1044.75 343.435C1042.7 347.041 1041.66 351.837 1041.66 357.709V421.755H1009.29V354.009C1009.29 346.173 1007.74 340.716 1004.66 337.789C1003.15 336.317 1001.36 335.184 999.375 334.41C997.411 333.654 995.296 333.277 993.2 333.352C990.16 333.447 987.176 334.259 984.513 335.731C981.227 337.525 978.508 340.225 976.676 343.473C974.504 347.079 973.428 351.856 973.428 357.69V421.736H941.022V304.709H973.428V319.229C976.431 314.924 980.208 311.223 984.57 308.278C990.141 304.634 996.694 302.745 1003.36 302.859C1011.33 302.859 1017.98 304.747 1023.11 308.429C1027.12 311.299 1030.89 316 1034.37 322.401C1037.37 317.756 1041.94 312.205 1048.3 308.58C1054.84 304.822 1062.24 302.84 1069.78 302.859C1077.14 302.708 1084.39 304.615 1090.72 308.372C1096.71 312.035 1101.48 317.794 1104.9 325.46C1108.32 333.126 1109.98 342.661 1109.98 354.009V421.755H1110Z" fill="#00493E"></path>
    <path d="M900.761 372.871C899.042 377.818 896.078 382.218 892.15 385.673C888.222 389.128 883.444 391.507 878.326 392.565C873.19 393.641 867.883 393.358 862.898 391.753C857.912 390.148 853.418 387.297 849.868 383.445L876.041 372.248L888.996 366.754L930.542 349.118C927.105 334.674 918.418 322.005 906.162 313.583C893.906 305.162 878.949 301.594 864.201 303.557C849.452 305.521 835.95 312.885 826.338 324.214C816.725 335.543 811.664 350.044 812.155 364.884C812.646 379.725 818.633 393.867 828.981 404.535C839.33 415.222 853.267 421.68 868.11 422.68C882.953 423.681 897.645 419.131 909.316 409.917C920.986 400.702 928.823 387.504 931.297 372.852L900.761 372.815V372.871ZM872.113 332.673C878.553 332.673 884.841 334.712 890.016 338.526L842.049 358.88C843.031 351.63 846.619 344.964 852.153 340.15C857.686 335.335 864.767 332.673 872.094 332.654L872.113 332.673Z" fill="#00493E"></path>
    <path d="M577.007 315.925C567.527 308.032 555.082 304.029 540.05 304.029C525.962 304.029 514.028 307.428 504.585 314.131C495.898 320.305 489.912 327.914 486.796 336.751L486.23 338.337L518.012 344.096L518.503 343.152C519.901 340.452 521.865 338.092 524.263 336.241C527.643 333.598 532.364 332.238 538.237 332.238C545.319 332.238 550.437 333.881 553.401 337.11C555.913 339.848 557.518 344.549 557.877 350.195C534.989 348.986 516.766 350.931 503.717 356.01C489.497 361.523 482.302 371.984 482.302 387.051C482.207 393.509 483.964 399.872 487.363 405.366C490.856 411.182 495.955 415.845 502.055 418.848C508.362 422.076 515.973 423.719 524.716 423.719C534.272 423.719 542.562 421.604 549.36 417.413C553.911 414.637 557.971 411.125 561.371 407.047V421.925H591.454V357.577C591.472 337.959 586.638 323.93 577.007 315.944V315.925ZM552.91 383.445C550.342 387.24 547.075 390.506 543.261 393.074C539.918 395.416 536.009 396.775 531.93 397.002C526.435 397.285 522.167 396.397 519.258 394.377C516.407 392.395 515.01 389.392 515.01 385.22C515.01 379.48 519.126 375.647 527.775 373.513C533.856 372.078 540.069 371.38 546.32 371.455C550.134 371.455 553.968 371.663 557.764 372.059C556.933 376.138 555.29 380.008 552.91 383.445Z" fill="#00493E"></path>
    <path d="M372.923 315.132C385.274 315.132 395.301 305.143 395.301 292.814C395.301 280.484 385.274 270.477 372.923 270.477C360.573 270.477 350.545 280.465 350.545 292.795C350.545 305.125 360.554 315.113 372.923 315.113V315.132Z" fill="black"></path>
    <path d="M477.448 295.023C477.448 295.023 461.283 268.702 426.989 263L417.812 297.402C417.812 297.402 437.036 298.157 450.33 317.511L477.467 295.042L477.448 295.023Z" fill="#00493E"></path>
    <path d="M913.848 447.019V462.105C915.566 459.537 919.135 457.271 923.309 457.271C931.108 457.271 937 463.729 937 472.414C937 481.1 931.108 487.557 923.309 487.557C919.135 487.557 915.566 485.272 913.848 482.61V487.123H906.728V447.038H913.848V447.019ZM929.881 472.395C929.881 467.769 926.255 463.936 921.855 463.936C917.455 463.936 913.829 467.769 913.829 472.395C913.829 477.021 917.455 480.854 921.855 480.854C926.255 480.854 929.881 477.021 929.881 472.395Z" fill="#00493E"></path>
    <path d="M938.341 457.706H946.253L953.052 476.625L959.85 457.706H967.763L956.187 485.99C952.07 496.073 948.841 500.019 943.61 500.019C942.099 500.019 940.38 499.792 939.719 499.622L938.832 492.938C945.177 493.939 946.404 491.22 948.916 485.367L938.398 457.706H938.341Z" fill="#00493E"></path>
    <path d="M1007.16 447.906H1014.73V471.961C1014.73 481.647 1008.5 487.538 999.583 487.538C990.67 487.538 984.438 481.647 984.438 471.961V447.906H992.01V472.395C992.01 478.456 995.787 480.854 999.583 480.854C1002.98 480.854 1007.16 478.4 1007.16 472.395V447.906Z" fill="#00493E"></path>
    <path d="M1028.97 447.019V462.105C1030.69 459.537 1034.25 457.271 1038.43 457.271C1046.23 457.271 1052.12 463.729 1052.12 472.414C1052.12 481.1 1046.23 487.557 1038.43 487.557C1034.25 487.557 1030.69 485.272 1028.97 482.61V487.123H1021.85V447.038H1028.97V447.019ZM1045 472.395C1045 467.769 1041.37 463.936 1036.97 463.936C1032.57 463.936 1028.95 467.769 1028.95 472.395C1028.95 477.021 1032.57 480.854 1036.97 480.854C1041.37 480.854 1045 477.021 1045 472.395Z" fill="#00493E"></path>
    <path d="M1085.96 474.963C1084.73 482.138 1079.45 487.538 1071.27 487.538C1062.58 487.538 1056.12 480.798 1056.12 472.452C1056.12 464.106 1062.58 457.252 1071.27 457.252C1078.9 457.252 1084.19 462.483 1085.75 469.167L1064.09 477.286C1065.55 479.853 1068.21 481.288 1071.21 481.288C1075.16 481.288 1078.12 479.004 1079.39 474.944H1085.96V474.963ZM1062.69 472.131L1077.9 466.391C1076.95 464.824 1074.78 463.049 1071.83 463.049C1066.77 463.049 1062.71 466.504 1062.71 472.131H1062.69Z" fill="#00493E"></path>
    <path d="M1097.54 463.106C1099.05 458.536 1104.83 456.705 1110 457.706L1108.77 465.447C1103.6 463.446 1097.52 465.73 1097.52 472.509V487.085H1090.4V457.687H1097.52V463.087L1097.54 463.106Z" fill="#00493E"></path>
  </g>
  <defs>
    <clipPath id="clip0_1_38">
      <rect width="779" height="237" fill="white" transform="translate(331 263)"></rect>
    </clipPath>
  </defs>
</svg>
